<svg width="156" height="48" viewBox="0 0 156 48" fill="none" xmlns="http://www.w3.org/2000/svg">
<path d="M8.30345 27.7906C8.30345 28.2902 8.73114 28.6828 9.2298 28.6437C13.195 28.3326 16.473 28.1952 19.8313 28.2315C20.3102 28.2367 20.7034 27.8521 20.7034 27.3738V24.8121C20.7034 24.3469 20.3307 23.9669 19.865 23.9617C17.8875 23.9397 15.9387 23.9778 13.8621 24.0762V21.7276C15.6297 21.6438 17.3047 21.6038 18.9837 21.6073C19.4596 21.6083 19.8483 21.2248 19.8483 20.7495V18.401C19.8483 17.933 19.4711 17.5518 19.0025 17.5507C17.3173 17.5468 15.6363 17.5869 13.8621 17.6709V15.1088C15.8527 15.0145 17.7259 14.9756 19.6194 14.992C20.0976 14.9961 20.4897 14.6117 20.4897 14.1342V11.5724C20.4897 11.1065 20.1158 10.7262 19.6494 10.7221C16.3145 10.6922 13.0453 10.8339 9.08839 11.1472C8.64491 11.1823 8.30345 11.5526 8.30345 11.9969V27.7906Z" fill="#1C7ED2"/>
<path d="M42.8727 29.5636C42.6659 29.9436 42.7745 30.4208 43.1425 30.6485C45.0661 31.8383 47.3439 32.496 50.0671 32.496C54.1707 32.496 57.2621 31.2433 57.2621 27.7697C57.2621 24.2715 53.9705 22.1737 50.5675 21.3854C50.4166 21.35 50.2689 21.3162 50.1252 21.2833C48.7676 20.9727 47.765 20.7433 47.765 20.0304C47.765 19.4145 48.2655 19.0942 49.1412 19.0942C50.3198 19.0942 52.0956 19.2879 53.46 20.0568C53.8075 20.2526 54.2489 20.2542 54.548 19.9904C55.525 19.1282 56.321 18.232 57.104 17.0885C57.3356 16.7503 57.28 16.2908 56.9538 16.0423C55.0664 14.6041 52.445 14.1535 49.1379 14.3478C45.5034 14.5613 42.7241 16.3022 42.7241 19.899C42.7241 23.7175 46.3137 24.9821 49.3414 25.7705L49.4397 25.7955C50.8432 26.1525 51.9187 26.4261 51.9187 27.0762C51.9187 27.5689 51.4183 27.9138 50.2923 27.9138C48.8996 27.9138 47.1154 27.4933 45.5851 26.6228C45.1345 26.3665 44.5417 26.4963 44.2941 26.9513L42.8727 29.5636Z" fill="#1C7ED2"/>
<path d="M33.0975 20.8301L35.1644 24.4598H35.2414V15.5006C35.2414 15.0258 35.6292 14.6422 36.1047 14.6461C37.245 14.6554 38.3824 14.6618 39.5187 14.6652C39.9904 14.6666 40.3724 15.0487 40.3724 15.5198V31.3194C40.3724 31.7916 39.9887 32.1743 39.5158 32.1729C38.2585 32.1691 36.9999 32.1617 35.7375 32.1506C35.4307 32.1479 35.149 31.9811 34.9992 31.7137L33.1034 28.3283L33.0975 20.8301Z" fill="#1C7ED2"/>
<path fill-rule="evenodd" clip-rule="evenodd" d="M31.8067 11.6076C40.9865 11.7424 49.8261 11.6862 59.2893 11.4389C61.5081 11.381 63.1247 13.7425 61.9705 15.7942C60.6879 18.0741 59.5421 19.5586 57.9525 20.9593C59.9809 23.7395 61.1635 26.1507 62.4989 30.481C62.619 30.8706 62.673 31.2595 62.6686 31.6381C62.6373 34.3208 59.9247 37.0009 57.2391 37.0696C44.9837 37.3833 33.7476 37.3766 21.4487 37.0494C19.3649 36.994 17.7103 35.2889 17.7103 33.2117V32.8953C14.5977 32.8782 11.5465 33.0225 7.78297 33.3216C5.54493 33.4995 3.6 31.7439 3.6 29.4799V13.7009C3.6 13.5913 3.60463 13.4826 3.61372 13.3751C3.82794 10.8412 6.28985 8.37981 8.82772 8.17292C16.1904 7.57271 20.9278 7.53203 28.3006 8.1182C30.1872 8.2682 31.6498 9.76772 31.8067 11.6076ZM30.5143 11.5874C30.3546 10.4202 29.4046 9.49107 28.1988 9.39521C20.8995 8.81489 16.2313 8.85469 8.93208 9.44972C7.91429 9.53269 7.07869 10.2077 6.74694 11.1182C6.67425 11.3178 6.62575 11.5286 6.60483 11.747C6.59707 11.828 6.5931 11.91 6.5931 11.9929V27.7718C6.5931 29.2774 7.88876 30.456 9.39154 30.3365C13.2651 30.0287 16.4074 29.8823 19.641 29.9076C19.9937 29.9104 20.3475 29.9152 20.7034 29.922C22.8857 29.9641 25.149 30.0834 27.7392 30.283C29.2423 30.3989 30.5379 29.2205 30.5379 27.715V21.5224L28.052 17.3063L27.9724 17.3002V27.694C27.9724 28.1915 27.5484 28.5834 27.0516 28.5479C25.8719 28.4636 24.7496 28.3959 23.6622 28.3447C23.2037 28.3231 22.8414 27.9468 22.8414 27.4884V11.6902C22.8414 11.2051 23.2454 10.8172 23.7305 10.8403C25.3076 10.9154 26.9587 11.0252 28.7525 11.1698C29.0581 11.1944 29.3268 11.3812 29.4566 11.6586L30.5379 13.968V11.936C30.5379 11.8221 30.5304 11.7097 30.5159 11.5994L30.5143 11.5874ZM31.8207 27.715V12.889C41.0062 13.0235 49.8534 12.967 59.3228 12.7196C59.4036 12.7175 59.4827 12.7208 59.5599 12.7291C60.718 12.8543 61.4457 14.1116 60.8521 15.1668C60.7682 15.316 60.685 15.4614 60.6023 15.6033C59.2509 17.9245 58.0523 19.2973 56.1931 20.7531C56.4981 21.1478 56.7843 21.5296 57.0545 21.905C57.3151 22.2671 57.5608 22.6234 57.7942 22.9796C59.2203 25.1561 60.1858 27.3325 61.2729 30.858C61.5093 31.6244 61.3549 32.3927 60.9449 32.987C60.5063 33.6225 59.7752 34.0589 58.9166 34.0809C47.9262 34.3623 37.7584 34.3854 26.9034 34.1504C24.1254 34.085 24.386 32.255 28.6082 31.5149L28.6138 31.5139C30.4116 31.1995 31.8207 29.6428 31.8207 27.715Z" fill="#1C7ED2"/>
<path fill-rule="evenodd" clip-rule="evenodd" d="M70.3161 32.0399C69.6007 32.0399 69.0207 31.4607 69.0207 30.7462V15.8259C69.0207 15.1114 69.6007 14.5322 70.3161 14.5322H76.7847C80.8922 14.5322 83.3967 16.6832 83.3967 20.1847V20.4348C83.3967 22.4607 82.2697 24.2365 80.5916 25.1119L83.3948 30.1145C83.878 30.9768 83.2538 32.0399 82.2643 32.0399H79.4263C78.9291 32.0399 78.4757 31.7557 78.2596 31.3085L75.833 26.2874H74.2051V30.7462C74.2051 31.4607 73.6251 32.0399 72.9096 32.0399H70.3161ZM74.0047 22.6608H75.8831C77.5361 22.6608 78.3375 21.7604 78.3375 20.6349V20.4348C78.3375 19.3593 77.5361 18.684 75.9332 18.684H74.0047V22.6608Z" fill="#1C7ED2"/>
<path d="M87.1295 32.0399C86.414 32.0399 85.8341 31.4607 85.8341 30.7462V15.8259C85.8341 15.1114 86.414 14.5322 87.1295 14.5322H96.2097C96.9252 14.5322 97.5052 15.1114 97.5052 15.8259V17.6405C97.5052 18.355 96.9252 18.9342 96.2097 18.9342H91.0184V21.3352H95.7088C96.4243 21.3352 97.0043 21.9144 97.0043 22.6289V24.1183C97.0043 24.8328 96.4243 25.412 95.7088 25.412H91.0184V27.638H96.4602C97.1756 27.638 97.7556 28.2172 97.7556 28.9316V30.7462C97.7556 31.4607 97.1756 32.0399 96.4602 32.0399H87.1295Z" fill="#1C7ED2"/>
<path fill-rule="evenodd" clip-rule="evenodd" d="M100.154 30.3361C99.8731 31.174 100.498 32.0399 101.382 32.0399H104.112C104.693 32.0399 105.202 31.6547 105.359 31.0971L105.87 29.2887H111.405L111.915 31.0971C112.072 31.6547 112.582 32.0399 113.162 32.0399H115.849C116.732 32.0399 117.356 31.1778 117.079 30.3408L112.149 15.4205C111.974 14.8903 111.478 14.5322 110.919 14.5322H106.377C105.82 14.5322 105.325 14.888 105.148 15.4157L100.154 30.3361ZM110.378 25.362H106.871L108.449 20.0847H108.8L110.378 25.362Z" fill="#1C7ED2"/>
<path fill-rule="evenodd" clip-rule="evenodd" d="M121.056 32.0399C120.34 32.0399 119.76 31.4607 119.76 30.7462V15.8259C119.76 15.1114 120.34 14.5322 121.056 14.5322H126.197C131.857 14.5322 135.639 17.9587 135.639 23.111V23.5362C135.639 28.5634 131.882 32.0399 126.197 32.0399H121.056ZM124.945 27.638H126.297C128.802 27.638 130.304 25.9372 130.304 23.5112V23.161C130.304 20.5599 128.802 18.9342 126.297 18.9342H124.945V27.638Z" fill="#1C7ED2"/>
<path d="M141.881 30.7462C141.881 31.4607 142.461 32.0399 143.176 32.0399H145.795C146.51 32.0399 147.09 31.4607 147.09 30.7462V25.3119L152.223 16.475C152.724 15.6125 152.101 14.5322 151.103 14.5322H148.217C147.713 14.5322 147.255 14.8241 147.042 15.2804L144.561 20.6099H144.41L141.905 15.2764C141.692 14.8223 141.234 14.5322 140.732 14.5322H137.828C136.827 14.5322 136.204 15.6164 136.709 16.4789L141.881 25.3119V30.7462Z" fill="#1C7ED2"/>
</svg>
